<svg xmlns="http://www.w3.org/2000/svg" width="800" height="800" viewBox="0 0 299.267 299.268" xml:space="preserve"><path d="M253.98 257.652c0-8.568 8.568-17.748 17.136-18.361-1.224-4.895-1.224-10.402-.611-15.299-3.061.611-7.345 0-10.404-1.225-6.12-3.061-9.792-9.18-9.792-15.912 0-9.18 7.956-20.807 17.136-21.42 0-2.447.612-4.896.612-7.344s.612-4.896.612-7.344c-7.956 3.061-17.137-4.283-18.973-12.24-1.836-9.792 4.284-17.748 12.853-21.42-.612-1.836-.612-4.284-.612-6.12 0-3.672 0-7.344.612-11.016-3.061 0-6.12-1.224-9.181-3.06-4.283-3.06-6.731-7.344-7.344-12.24v-2.448c0-9.792 8.568-15.3 17.136-16.524-.611-3.672 0-7.956 0-11.628 0-3.06 0-6.12.612-9.18-7.956 2.448-18.36-4.284-20.808-12.24-2.448-7.956 1.836-17.748 9.792-20.808-1.225-3.06-1.225-6.732-1.225-10.404 0-3.06-.611-6.732-.611-9.792-9.792 12.24-39.168 4.284-40.393-9.18-4.895 1.225-10.403-.611-14.687-2.447.611 9.18-7.956 17.748-17.137 17.748-9.18 0-16.523-6.732-18.359-15.3-2.448 0-4.896 0-6.732-.612-2.448 0-4.896-.612-7.956-1.224 0 4.284-2.448 9.18-5.508 12.24-3.672 3.672-9.18 6.12-14.076 6.12-1.224 0-2.448 0-3.672-.612-5.508-1.224-12.24-4.896-14.076-11.016V6.12c-4.896.612-11.016-.612-15.912-2.448-.612 8.568-9.18 15.3-18.36 14.076-4.284-.612-9.792-3.06-11.016-7.344V9.18s0 .612-.612.612c-3.672 3.06-8.568 2.448-12.852 1.836H45.9c1.224.612 1.836 1.836 2.448 2.448 3.672 4.896 5.508 11.016 3.06 17.136-3.06 8.568-14.076 12.24-22.032 9.18 0 1.224-.612 1.836-.612 3.06-.612 3.672-.612 6.732-.612 10.404 9.792-1.224 22.644 1.224 23.868 12.852.612 5.508-3.06 11.016-8.568 12.852-2.448 1.224-5.508 1.224-7.956 1.224-.612 0-1.224 0-2.448-.612v6.12c0 3.672.612 7.344-.612 11.016.612 0 .612-.612 1.224-.612 11.628-3.672 23.256 7.344 19.584 18.972-1.224 4.896-5.508 8.568-9.792 10.404-3.672 1.224-6.732 1.836-10.404 1.836-.612 1.836-.612 3.06-1.224 4.896-.612 2.448-.612 5.508-.612 7.956 8.568-4.284 22.032-1.836 22.644 9.18.612 9.179-10.404 24.48-21.42 23.869v4.283c0 2.447-.612 4.896-.612 7.957 2.448-1.225 6.12-1.836 9.18-1.836 6.12.611 11.016 4.895 12.24 11.016 3.672 13.463-9.18 22.643-20.808 20.807-.612 4.285-1.224 9.793-1.836 13.465 5.508-4.283 17.748-3.061 21.42 4.283 8.568 15.912-8.568 25.705-22.032 28.152 0 4.896 0 10.404-1.224 15.301 7.344-4.285 18.36-4.285 25.704 0 7.956 4.896 11.628 13.463 11.628 22.031 3.672-.611 7.344-1.223 11.016-1.223 0-8.568 9.18-20.197 16.524-20.809 4.896-.613 9.792 2.447 11.628 7.344 1.836 4.283 1.224 9.791 3.06 14.076.612 0 1.224-.611 1.836-.611 3.06 0 4.896-.613 7.344-1.838-.612-1.836 0-3.672.612-6.119 1.224-4.896 5.508-9.18 10.404-10.404 11.016-3.061 19.584 4.896 22.645 14.688 3.672-.611 7.344-.611 11.628-.611 1.836 0 3.672 0 5.508.611-2.448-8.566 4.284-18.971 13.464-19.584h1.836c5.508 0 10.404 3.061 13.464 6.732 1.836 2.449 3.672 5.508 4.284 8.568h9.792c1.224-7.955 9.792-14.076 17.748-14.688 7.956-.613 15.912 3.672 19.584 11.016 5.508-3.672 13.464-6.119 20.808-6.119v-7.957c-7.345 1.224-15.301-7.344-15.301-14.688zm-10.404 8.569c0 4.283-6.12 4.283-6.12 0-3.672-77.725-4.896-155.449-9.792-233.173-.611.612-1.224.612-2.447.612-52.633 0-105.264 1.836-157.896 1.836h-.612c6.732 15.3 3.06 41.616 3.06 57.528v53.856c0 39.78 0 79.56-1.224 119.341 0 1.836-1.224 3.059-2.448 3.672 50.796-12.854 115.668-14.076 167.688-6.732 1.836.611 3.061 1.836 3.061 3.672s-1.225 4.283-3.672 4.896c-15.912.611-31.824.611-47.736.611-12.852 0-25.704 0-39.168.611-26.316 1.225-53.856 4.285-79.56.613-1.836 0-1.836-3.061 0-3.672-2.448 1.223-6.732 0-6.12-3.672 1.224-76.5-1.836-154.225 3.06-230.725 0-2.448 0-4.896.612-7.344 0-3.06 4.284-3.06 4.284 0v1.224c19.584-2.448 39.168-3.672 59.364-4.896 33.048-1.224 66.097-1.224 98.532-.612 1.224 0 2.448.612 3.06 1.224 1.837-2.448 6.732-1.836 7.345 2.448 2.447 25.704 4.896 51.408 6.12 77.112 1.833 53.857 3.057 108.326.609 161.57zm-91.188-74.053c-3.06 1.836-6.732-.611-7.344-3.061l-.612-.611c-30.6-7.957-63.036-45.9-55.692-77.112 3.06-12.852 15.3-26.316 29.988-22.032 12.852 3.672 22.032 19.584 28.152 32.436 6.12-15.3 16.524-34.272 30.6-40.392 11.628-4.896 22.644 0 27.54 11.628 14.688 34.884-26.316 81.396-52.632 99.144z"/></svg>