<svg version="1.1" id="Icons" xmlns="http://www.w3.org/2000/svg" viewBox="0 0 32 32" xml:space="preserve"><style>.st0{fill:none;stroke:#000;stroke-width:2;stroke-linecap:round;stroke-linejoin:round;stroke-miterlimit:10}</style><path class="st0" d="M17.9 9.9c-4.6.9-6 2.3-6.9 6.9-.9-4.6-2.3-6-6.9-6.9C8.7 9 10.1 7.6 11 3c.9 4.6 2.3 6 6.9 6.9zM21.8 25c-3.2.6-4.1 1.6-4.8 4.8-.6-3.2-1.6-4.1-4.8-4.8 3.2-.6 4.1-1.6 4.8-4.8.6 3.2 1.6 4.2 4.8 4.8zM29 15c-2.6.5-3.4 1.3-3.9 3.9-.5-2.6-1.3-3.4-3.9-3.9 2.6-.5 3.4-1.3 3.9-3.9.5 2.6 1.3 3.4 3.9 3.9zM5 23h0M28 6h0"/></svg>