<svg height="800" width="800" xmlns="http://www.w3.org/2000/svg" viewBox="0 0 512 512" xml:space="preserve"><path d="M510.633 312.157a10.2 10.2 0 0 0-7.896-5.057c-2.145-.197-47.182-4.084-99.312 11.3 26.328-66.804 20.892-130.565 20.604-133.685a10.198 10.198 0 0 0-14.424-8.326c-2.376 1.094-53.024 24.801-96.25 73.73-12.294-68.888-47.239-119.028-49.03-121.56a10.198 10.198 0 0 0-16.656 0c-1.791 2.531-36.734 52.671-49.03 121.56-43.226-48.93-93.874-72.636-96.25-73.73a10.201 10.201 0 0 0-14.424 8.326c-.289 3.121-5.725 66.883 20.604 133.687-52.132-15.383-97.17-11.499-99.31-11.302a10.2 10.2 0 0 0-8.326 14.424c1.384 3.007 34.718 74.09 104.598 114.435 51.68 29.838 107.921 33.957 135.047 33.957 7.857 0 13.268-.346 15.42-.512 2.152.167 7.56.512 15.42.512 27.128 0 83.37-4.122 135.047-33.957 69.88-40.345 103.213-111.428 104.598-114.435a10.196 10.196 0 0 0-.43-9.367zm-394.9 106.137c-46.299-26.731-75.771-69.419-88.691-91.331 19.957.158 56.079 2.755 93.151 16.865a243.204 243.204 0 0 0 4.748 8.639c26.426 45.771 64.75 77.386 92.361 95.908-27.567-2.382-66.147-9.629-101.569-30.081zm26.874-76.026c-30.576-52.959-34.747-112.22-34.81-139.876 20.007 11.603 57.699 36.729 87.32 75.55a254.037 254.037 0 0 0-.713 18.83c0 55.065 18.368 103.46 33.547 134.055-25.709-17.401-61.245-46.817-85.344-88.559zM256 439.788c-14.113-24.479-41.197-79.709-41.197-143.016S241.889 178.233 256 153.757c14.113 24.479 41.197 79.709 41.197 143.016S270.11 415.312 256 439.788zm61.595-143.017c0-6.372-.254-12.652-.713-18.829 29.632-38.833 67.34-63.965 87.341-75.561-.037 27.613-4.169 86.782-34.829 139.886-24.03 41.622-59.583 71.06-85.315 88.497 15.173-30.598 33.516-78.963 33.516-133.993zm78.672 121.523c-35.422 20.45-74.002 27.698-101.568 30.081 27.61-18.522 65.934-50.137 92.359-95.907a245.728 245.728 0 0 0 4.75-8.642c36.96-14.064 73.145-16.67 93.138-16.844-12.928 21.922-42.396 64.59-88.679 91.312z"/><path d="M173.386 129.797c-16.59 0-30.088 13.498-30.088 30.088s13.498 30.088 30.088 30.088 30.088-13.498 30.088-30.088-13.498-30.088-30.088-30.088zm0 39.777c-5.342 0-9.689-4.347-9.689-9.689s4.347-9.689 9.689-9.689 9.689 4.347 9.689 9.689-4.346 9.689-9.689 9.689zM338.613 129.797c-16.59 0-30.088 13.498-30.088 30.088s13.498 30.088 30.088 30.088c16.59 0 30.088-13.498 30.088-30.088s-13.498-30.088-30.088-30.088zm0 39.777c-5.342 0-9.689-4.347-9.689-9.689s4.347-9.689 9.689-9.689 9.689 4.347 9.689 9.689-4.346 9.689-9.689 9.689zM256 42.083c-16.59 0-30.088 13.498-30.088 30.088S239.41 102.259 256 102.259s30.088-13.498 30.088-30.088S272.59 42.083 256 42.083zm0 39.777c-5.342 0-9.689-4.347-9.689-9.689s4.347-9.689 9.689-9.689 9.689 4.347 9.689 9.689-4.347 9.689-9.689 9.689zM266.206 368.497c-5.316-1.86-11.134.938-12.998 6.254-1.253 3.578-2.09 5.565-2.094 5.572-2.208 5.183.204 11.174 5.386 13.381a10.17 10.17 0 0 0 3.993.818c3.964 0 7.735-2.326 9.388-6.204.108-.255 1.105-2.614 2.578-6.823 1.864-5.316-.937-11.136-6.253-12.998zM286.127 291.364c-.181-5.63-4.905-10.05-10.521-9.866-5.63.181-10.047 4.892-9.866 10.522.56 17.412-.977 35.317-4.569 53.215-1.109 5.523 2.47 10.898 7.993 12.007.677.136 1.351.201 2.017.201 4.759 0 9.016-3.349 9.989-8.195 3.9-19.434 5.567-38.908 4.957-57.884z"/></svg>